# xmcd
#
# Track frame offsets: 
#        150
#        20880
#        46995
#
# Disc length: 901 seconds
#
# Revision: 2
# Processed by: cddbd v1.5.2PL0 Copyright (c) Steve Scherf et al.
# Submitted via: ExactAudioCopy v1.1
#
DISCID=21038303
DTITLE=TRF - SILENT NIGHT
DYEAR=1996
DGENRE=JPop
TTITLE0=SILENT NIGHT (STRAIGHT RUN)
TTITLE1=SILENT NIGHT (UP ALL NIGHT MIX)
TTITLE2=SILENT NIGHT (INSTRUMENTAL)
EXTD=YEAR: 1996
EXTT0=
EXTT1=
EXTT2=
PLAYORDER=
